<svg width="176" height="260" viewBox="0 0 176 260" fill="none" xmlns="http://www.w3.org/2000/svg">
<path d="M142.316 120.254C141.256 128.034 134.966 133.994 126.846 135.904C126.846 135.904 96.9258 214.014 116.096 253.184C146.096 294.514 181.596 129.404 174.266 87.8538C162.266 5.52384 75.5958 73.5238 75.5958 73.5238C44.2658 99.6938 42.9258 120.634 42.9258 120.634C42.9258 120.634 37.0358 141.194 59.2558 167.304C81.4758 193.414 99.2558 177.524 104.146 158.524C109.036 139.524 108.576 139.794 108.906 133.454C101.516 129.444 96.8458 122.054 97.8958 114.304L101.266 89.4438C101.646 86.6638 104.416 84.7538 107.456 85.1638C110.496 85.5738 112.656 88.1638 112.276 90.9338L109.356 112.504C109.156 113.994 110.286 115.384 111.876 115.594C113.466 115.804 114.926 114.774 115.126 113.284L118.066 91.6038C118.446 88.8238 121.216 86.9138 124.256 87.3238C127.296 87.7338 129.456 90.3238 129.076 93.0938L126.106 115.004C125.906 116.494 126.996 117.874 128.536 118.084C130.076 118.294 131.496 117.254 131.696 115.764L134.606 94.3338C134.996 91.4738 137.776 89.4838 140.816 89.8938C143.856 90.3038 146.006 92.9638 145.616 95.8238L142.246 120.684" fill="#FB6B04"/>
<path d="M56.2955 15.0744C62.4655 29.5744 70.9155 46.9944 71.0555 62.4144C51.0455 54.7044 29.5455 40.8344 23.8355 20.0144C19.7755 -6.6356 47.5355 -5.0056 56.2955 15.0844V15.0744Z" fill="#3FBA3D"/>
<path d="M88.5056 46.7937C87.5256 48.0337 81.2356 54.2137 80.7756 54.3337C77.8956 49.8537 75.2456 41.7237 74.8356 39.2437C74.1056 34.8737 73.5656 28.8637 74.3656 24.4937C75.9356 15.8237 82.2956 8.15372 90.8356 5.21372C91.1956 5.09372 91.9356 4.83372 92.3056 4.72372C95.1556 3.89372 98.6156 3.82372 100.476 6.49372C101.936 8.57372 102.806 12.1537 102.646 14.6637C102.206 21.4937 100.266 28.0237 97.0856 34.0437" fill="#3FBA3D"/>
<path d="M17.6357 80.1352C11.6057 80.3852 -5.2143 77.0552 1.5957 68.1052C20.5957 43.1252 47.0857 54.8152 61.4257 69.6852C49.7557 77.9452 25.4257 80.1652 17.6357 80.1352Z" fill="#3FBA3D"/>
</svg>
