<svg width="694" height="299" viewBox="0 0 694 299" fill="none" xmlns="http://www.w3.org/2000/svg">
<path d="M656.848 1.62305H694V95.8032C694 105.681 691.523 114.477 686.569 122.19C681.616 129.903 674.903 135.924 666.429 140.255C657.956 144.449 648.701 146.547 638.664 146.547C628.626 146.547 619.371 144.449 610.898 140.255C602.555 135.924 595.907 129.903 590.954 122.19C586 114.477 583.523 105.681 583.523 95.8032V1.62305H620.675V95.8032C620.675 99.8627 622.565 102.975 626.345 105.14C630.256 107.17 634.362 108.185 638.664 108.185C643.748 108.185 648.049 107.17 651.569 105.14C655.089 103.11 656.848 99.998 656.848 95.8032V1.62305Z" fill="#FC6B02"/>
<path d="M500.088 146.548C487.313 146.548 475.516 143.3 464.696 136.805C453.877 130.174 445.273 121.243 438.886 110.012C432.629 98.7809 429.5 86.5348 429.5 73.2738C429.5 60.0128 432.629 47.7666 438.886 36.5354C445.273 25.3041 453.877 16.4409 464.696 9.94574C475.516 3.31525 487.313 0 500.088 0C512.863 0 524.66 3.31525 535.479 9.94574C546.299 16.4409 554.837 25.3041 561.094 36.5354C567.482 47.7666 570.675 60.0128 570.675 73.2738C570.675 86.5348 567.482 98.7809 561.094 110.012C554.837 121.243 546.299 130.174 535.479 136.805C524.66 143.3 512.863 146.548 500.088 146.548ZM500.088 107.982C506.084 107.982 511.624 106.426 516.708 103.314C521.922 100.202 526.029 96.0069 529.027 90.7296C532.025 85.3169 533.524 79.4983 533.524 73.2738C533.524 67.0492 532.025 61.2983 529.027 56.0209C526.029 50.6083 521.922 46.3458 516.708 43.2335C511.624 40.1213 506.084 38.5651 500.088 38.5651C494.092 38.5651 488.486 40.1213 483.272 43.2335C478.188 46.3458 474.147 50.6083 471.149 56.0209C468.151 61.2983 466.652 67.0492 466.652 73.2738C466.652 79.4983 468.151 85.3169 471.149 90.7296C474.147 96.0069 478.188 100.202 483.272 103.314C488.486 106.426 494.092 107.982 500.088 107.982Z" fill="#FC6B02"/>
<path d="M346.983 62.3131H423.632V77.3333C423.632 89.7823 420.439 101.352 414.051 112.042C407.664 122.597 399.06 130.986 388.241 137.211C377.552 143.435 366.015 146.548 353.631 146.548C340.857 146.548 329.059 143.3 318.24 136.805C307.42 130.174 298.817 121.243 292.43 110.012C286.172 98.7809 283.044 86.5348 283.044 73.2738C283.044 60.0128 286.172 47.7666 292.43 36.5354C298.817 25.3041 307.42 16.4409 318.24 9.94574C329.059 3.31525 340.857 0 353.631 0C364.712 0 375.01 2.50335 384.526 7.51005C394.172 12.3814 402.319 19.1472 408.967 27.8075L379.833 51.7585C376.704 47.699 372.859 44.5191 368.296 42.2187C363.734 39.783 358.846 38.5651 353.631 38.5651C347.635 38.5651 342.03 40.1213 336.816 43.2335C331.732 46.3458 327.691 50.6083 324.693 56.0209C321.694 61.2983 320.195 67.0492 320.195 73.2738C320.195 79.4983 321.694 85.3169 324.693 90.7296C327.691 96.0069 331.732 100.202 336.816 103.314C342.03 106.426 347.635 107.982 353.631 107.982C357.803 107.982 361.779 107.17 365.559 105.547C369.47 103.923 372.924 101.69 375.922 98.8485H346.983V62.3131Z" fill="#FC6B02"/>
<path d="M233.13 1.62305H270.281V95.8032C270.281 105.681 267.804 114.477 262.851 122.19C257.897 129.903 251.184 135.924 242.711 140.255C234.238 144.449 224.982 146.547 214.945 146.547C204.908 146.547 195.652 144.449 187.179 140.255C178.837 135.924 172.188 129.903 167.235 122.19C162.281 114.477 159.805 105.681 159.805 95.8032V1.62305H196.956V95.8032C196.956 99.8627 198.846 102.975 202.626 105.14C206.537 107.17 210.643 108.185 214.945 108.185C220.029 108.185 224.331 107.17 227.85 105.14C231.37 103.11 233.13 99.998 233.13 95.8032V1.62305Z" fill="#FC6B02"/>
<path d="M70.5874 59.6737L104.024 1.62305H141.175V143.705H104.024V72.4611L75.0847 122.596H66.0902L37.1513 72.4611V143.705H0V1.62305H37.1513L70.5874 59.6737Z" fill="#FC6B02"/>
<path d="M407.851 198.906C416.253 198.906 422.554 201.498 426.755 206.682C431.045 211.866 433.19 220.045 433.19 231.217C433.19 238.189 432.386 244.401 430.777 249.853C429.168 255.305 426.934 259.953 424.073 263.796C421.213 267.55 417.861 270.411 414.018 272.377C410.175 274.343 406.018 275.327 401.549 275.327C396.812 275.327 393.103 274.299 390.422 272.243C387.74 270.187 385.64 267.282 384.12 263.528C383.852 266.746 383.629 269.204 383.45 270.902C383.271 272.6 383.137 273.941 383.048 274.924C382.958 275.997 382.869 276.935 382.78 277.74C382.78 278.544 382.69 279.617 382.511 280.957C382.422 282.298 382.288 284.13 382.109 286.454C381.93 288.778 381.662 291.996 381.305 296.107C381.215 297.18 380.992 297.895 380.634 298.253C380.277 298.61 379.517 298.789 378.355 298.789H373.529C370.758 298.789 368.479 298.476 366.691 297.85C364.993 297.314 363.607 296.51 362.535 295.437C361.552 294.365 360.837 293.024 360.39 291.415C360.032 289.896 359.854 288.108 359.854 286.052C359.854 285.158 359.988 282.745 360.256 278.812C360.524 274.88 360.837 270.187 361.194 264.735C361.641 259.193 362.088 253.25 362.535 246.904C363.071 240.558 363.563 234.524 364.01 228.804C364.457 222.994 364.814 217.855 365.082 213.386C365.44 208.917 365.708 205.833 365.887 204.135C365.976 202.169 366.2 201.007 366.557 200.649C366.825 200.381 367.54 200.247 368.702 200.247H373.931C378.757 200.247 382.243 201.275 384.388 203.331C386.623 205.297 387.74 207.666 387.74 210.436C389.796 206.325 392.433 203.375 395.65 201.588C398.957 199.8 403.024 198.906 407.851 198.906ZM398.064 216.738C393.505 216.738 390.153 218.704 388.008 222.637C385.863 226.569 384.791 231.932 384.791 238.725C384.791 241.049 384.925 243.328 385.193 245.563C385.55 247.797 386.131 249.808 386.936 251.596C387.74 253.384 388.813 254.814 390.153 255.886C391.584 256.959 393.371 257.495 395.516 257.495C399.36 257.495 402.577 255.618 405.169 251.864C407.761 248.11 409.057 242.211 409.057 234.167C409.057 231.932 408.879 229.787 408.521 227.731C408.253 225.586 407.717 223.709 406.912 222.1C406.108 220.492 404.991 219.196 403.561 218.212C402.13 217.229 400.298 216.738 398.064 216.738Z" fill="#3FBA3B"/>
<path d="M337.562 273.986C334.792 273.986 332.512 273.718 330.725 273.181C329.027 272.556 327.641 271.707 326.569 270.634C325.585 269.561 324.87 268.265 324.423 266.746C324.066 265.137 323.887 263.305 323.887 261.249C323.887 259.908 323.932 258.031 324.021 255.618C324.2 253.115 324.468 249.719 324.826 245.429C325.183 241.049 325.585 235.552 326.032 228.938C326.569 222.234 327.194 213.967 327.909 204.135C327.999 202.169 328.222 201.007 328.58 200.649C328.848 200.381 329.563 200.247 330.725 200.247H335.954C338.724 200.247 340.959 200.515 342.657 201.051C344.445 201.588 345.83 202.392 346.813 203.465C347.886 204.537 348.601 205.833 348.958 207.353C349.405 208.872 349.629 210.57 349.629 212.447C349.629 213.788 349.539 215.799 349.361 218.48C349.182 221.162 348.914 224.827 348.556 229.474C348.288 234.033 347.886 239.753 347.35 246.635C346.813 253.428 346.143 261.651 345.339 271.304C345.249 272.377 345.026 273.092 344.668 273.449C344.311 273.807 343.551 273.986 342.389 273.986H337.562ZM328.043 184.427C328.043 180.851 329.339 178.036 331.931 175.98C334.523 173.924 338.009 172.896 342.389 172.896C346.232 172.896 349.003 173.701 350.701 175.31C352.489 176.829 353.383 178.885 353.383 181.477C353.383 184.784 352.131 187.555 349.629 189.789C347.215 191.935 343.64 193.007 338.903 193.007C331.663 193.007 328.043 190.147 328.043 184.427Z" fill="#3FBA3B"/>
<path d="M246.432 273.985C245.449 273.985 244.957 273.493 244.957 272.51L245.359 265.271C245.449 264.466 245.583 263.483 245.761 262.321C245.94 261.07 246.342 260.042 246.968 259.237C248.488 256.467 250.32 253.472 252.465 250.255C254.61 247.037 257.202 243.104 260.241 238.456C263.28 233.809 266.811 228.222 270.833 221.698C274.944 215.083 279.681 207.039 285.044 197.565H254.476C253.761 197.565 253.314 197.431 253.135 197.163C253.046 196.894 253.001 196.403 253.001 195.688L253.403 188.18C253.493 187.018 253.627 185.901 253.806 184.828C254.074 183.666 254.521 182.638 255.146 181.744C255.861 180.851 256.845 180.136 258.096 179.599C259.347 179.063 261.001 178.795 263.057 178.795H314.272C314.808 178.795 315.299 178.929 315.746 179.197C316.193 179.465 316.417 179.957 316.417 180.672L315.88 187.912C315.702 190.236 315.165 192.157 314.272 193.677C314.003 194.124 312.707 196.269 310.384 200.112C308.06 203.866 305.11 208.648 301.535 214.458C297.96 220.267 293.938 226.748 289.468 233.898C285.089 241.048 280.665 248.154 276.195 255.215H310.249C310.786 255.215 311.277 255.349 311.724 255.617C312.171 255.886 312.395 256.377 312.395 257.092L311.858 265.002C311.68 267.684 310.92 269.874 309.579 271.572C308.328 273.181 305.691 273.985 301.669 273.985H246.432Z" fill="#3FBA3B"/>
<path d="M224.793 218.347C224.525 221.743 224.212 225.095 223.855 228.402C223.587 231.709 223.319 234.838 223.05 237.787C222.782 240.737 222.559 243.374 222.38 245.697C222.291 248.021 222.246 249.809 222.246 251.06C222.246 253.384 222.514 254.948 223.05 255.753C223.587 256.468 224.48 256.825 225.732 256.825C226.715 256.825 227.564 256.647 228.279 256.289C228.994 255.931 229.665 255.529 230.29 255.082C230.916 254.635 231.452 254.233 231.899 253.876C232.435 253.518 233.016 253.339 233.642 253.339C234.268 253.339 234.849 253.697 235.385 254.412C235.921 255.127 236.189 256.781 236.189 259.373C236.189 264.289 234.849 268.177 232.167 271.037C229.486 273.897 224.883 275.327 218.358 275.327C211.922 275.327 207.141 273.852 204.012 270.903C200.973 267.864 199.454 263.261 199.454 257.093C199.454 255.753 199.499 254.189 199.588 252.401C199.767 250.524 199.99 248.111 200.258 245.161C200.526 242.212 200.839 238.592 201.197 234.301C201.644 230.011 202.091 224.693 202.538 218.347H195.432C194.717 218.347 194.27 218.213 194.091 217.945C194.002 217.587 193.957 217.096 193.957 216.47L194.359 209.632C194.449 208.47 194.583 207.353 194.761 206.281C195.03 205.119 195.476 204.091 196.102 203.197C196.817 202.303 197.8 201.588 199.052 201.052C200.303 200.516 201.957 200.247 204.012 200.247C204.638 198.639 205.353 196.717 206.157 194.482C206.962 192.248 207.766 190.103 208.571 188.047C209.375 185.902 210.135 184.114 210.85 182.684C211.654 181.254 212.369 180.539 212.995 180.539H216.883C220.637 180.539 223.229 181.701 224.659 184.025C226.089 186.349 226.804 189.12 226.804 192.337C226.804 194.125 226.67 196.762 226.402 200.247H240.48C241.91 200.247 242.625 200.873 242.625 202.124L242.088 209.364C241.91 212.046 241.15 214.235 239.809 215.934C238.558 217.543 235.921 218.347 231.899 218.347H224.793Z" fill="#3FBA3B"/>
<path d="M116.398 257.495C116.398 249.451 120.018 243.15 127.258 238.591C134.498 234.033 145.179 231.575 159.301 231.217C159.39 230.234 159.435 229.43 159.435 228.804C159.524 228.089 159.569 227.24 159.569 226.257C159.569 223.396 159.033 221.117 157.96 219.419C156.888 217.721 154.653 216.872 151.257 216.872C149.38 216.872 147.86 217.14 146.698 217.676C145.536 218.212 144.598 218.972 143.883 219.955C143.168 220.849 142.587 221.966 142.14 223.307C141.693 224.648 141.291 226.123 140.933 227.731C140.755 228.536 140.352 229.072 139.727 229.34C139.101 229.519 138.118 229.608 136.777 229.608C127.66 229.608 123.102 226.167 123.102 219.285C123.102 216.514 123.728 213.877 124.979 211.375C126.32 208.872 128.241 206.727 130.744 204.939C133.336 203.062 136.554 201.588 140.397 200.515C144.24 199.443 148.709 198.906 153.804 198.906C163.725 198.906 170.921 200.962 175.39 205.074C179.859 209.185 182.093 214.995 182.093 222.503C182.093 223.486 181.959 225.273 181.691 227.866C181.512 230.368 181.244 233.05 180.886 235.91C180.618 238.681 180.35 241.317 180.082 243.82C179.903 246.323 179.814 248.065 179.814 249.049C179.814 251.283 180.216 252.892 181.021 253.875C181.825 254.769 182.719 255.395 183.702 255.752C184.774 256.11 185.713 256.378 186.517 256.557C187.322 256.735 187.724 257.182 187.724 257.897C187.724 259.864 187.456 261.875 186.92 263.931C186.383 265.986 185.49 267.863 184.238 269.561C183.076 271.26 181.423 272.645 179.278 273.718C177.222 274.79 174.674 275.327 171.636 275.327C167.345 275.327 164.128 274.299 161.982 272.243C159.837 270.187 158.407 267.327 157.692 263.662C155.547 266.791 152.732 269.517 149.246 271.841C145.849 274.165 141.38 275.327 135.839 275.327C133.157 275.327 130.61 275.014 128.197 274.388C125.873 273.762 123.817 272.734 122.029 271.304C120.331 269.874 118.946 268.042 117.873 265.808C116.89 263.484 116.398 260.713 116.398 257.495ZM158.094 242.211C155.771 242.211 153.491 242.39 151.257 242.747C149.022 243.105 147.011 243.686 145.224 244.49C143.525 245.205 142.14 246.188 141.067 247.44C139.995 248.691 139.459 250.211 139.459 251.998C139.459 254.054 140.084 255.484 141.336 256.288C142.676 257.093 144.106 257.495 145.626 257.495C147.056 257.495 148.486 257.182 149.916 256.557C151.346 255.931 152.598 254.992 153.67 253.741C154.832 252.4 155.815 250.792 156.62 248.915C157.424 247.038 157.916 244.803 158.094 242.211Z" fill="#3FBA3B"/>
<path d="M85.0008 202.525C84.2857 204.671 83.3473 207.486 82.1853 210.972C81.1127 214.368 79.9061 218.122 78.5654 222.234C77.2247 226.345 75.8393 230.725 74.4092 235.373C72.9791 239.931 71.5043 244.4 69.9849 248.78C68.5548 253.159 67.1247 257.36 65.6946 261.382C64.2645 265.315 62.9685 268.756 61.8066 271.706C61.449 272.421 60.6893 273.002 59.5274 273.449C58.4548 273.806 56.7119 273.985 54.2986 273.985C52.7791 273.985 51.215 273.896 49.6061 273.717C47.9973 273.538 46.4778 273.181 45.0477 272.644C43.707 272.108 42.5004 271.393 41.4278 270.499C40.4446 269.605 39.6849 268.488 39.1486 267.147C37.8079 262.589 36.5119 257.539 35.2606 251.997C34.0986 246.367 32.9367 240.646 31.7747 234.836C30.6128 229.027 29.4509 223.351 28.2889 217.809C27.2163 212.179 26.0991 207.084 24.9371 202.525C24.9371 203.777 24.8925 205.922 24.8031 208.961C24.7137 212 24.6243 215.53 24.5349 219.552C24.4455 223.575 24.3115 227.909 24.1327 232.557C24.0433 237.205 23.954 241.763 23.8646 246.232C23.7752 250.612 23.6858 254.724 23.5964 258.567C23.5071 262.321 23.4624 265.405 23.4624 267.818C23.4624 270.499 23.2836 272.197 22.9261 272.913C22.6579 273.628 22.1217 273.985 21.3172 273.985H13.9433C8.84866 273.985 5.22875 273.002 3.08362 271.036C1.02787 268.98 0 265.986 0 262.053C0 260.98 0.0446894 259.193 0.13407 256.69C0.312831 254.098 0.536282 251.059 0.804424 247.573C1.07257 244.087 1.34071 240.289 1.60885 236.177C1.96637 231.976 2.32389 227.731 2.68141 223.44C3.12832 217.631 3.48584 212.804 3.75398 208.961C4.1115 205.028 4.37964 201.766 4.5584 199.174C4.73716 196.582 4.87123 194.481 4.96061 192.872C5.13937 191.263 5.22875 189.833 5.22875 188.582C5.31814 187.331 5.36283 186.169 5.36283 185.096C5.45221 183.934 5.4969 182.504 5.4969 180.806C5.4969 180.091 5.76504 179.599 6.30132 179.331C6.8376 178.974 7.32919 178.795 7.7761 178.795H26.546C30.0318 178.795 32.892 179.376 35.1265 180.538C37.361 181.61 39.1933 183.309 40.6234 185.633C42.0535 187.956 43.2154 190.995 44.1092 194.749C45.003 198.414 45.8075 202.794 46.5225 207.888C47.3269 212.983 48.1761 218.882 49.0699 225.586C50.053 232.2 51.3044 239.663 52.8238 247.975C54.2539 242.434 55.4606 237.831 56.4437 234.166C57.4269 230.501 58.2313 227.463 58.857 225.049C59.5721 222.547 60.153 220.491 60.5999 218.882C61.0468 217.273 61.449 215.798 61.8066 214.458C62.1641 213.028 62.5663 211.508 63.0132 209.899C63.4601 208.29 63.9964 206.279 64.6221 203.866C65.2477 201.453 66.0074 198.459 66.9012 194.883C67.8844 191.219 69.0911 186.616 70.5212 181.074C70.6999 180.538 71.0128 180.046 71.4597 179.599C71.9066 179.063 72.711 178.795 73.8729 178.795H94.7879C97.6481 178.795 99.9273 179.108 101.626 179.733C103.413 180.27 104.799 181.074 105.782 182.147C106.765 183.219 107.435 184.56 107.793 186.169C108.15 187.688 108.329 189.476 108.329 191.532C108.329 193.587 108.195 196.939 107.927 201.587C107.748 206.145 107.435 211.329 106.988 217.139C106.631 222.859 106.229 228.803 105.782 234.971C105.424 241.138 105.022 246.858 104.575 252.132C104.218 257.405 103.905 261.874 103.637 265.539C103.368 269.203 103.19 271.348 103.1 271.974C103.011 272.689 102.832 273.225 102.564 273.583C102.296 273.851 101.76 273.985 100.955 273.985H93.5813C88.4866 273.985 84.8667 273.002 82.7216 271.036C80.6658 268.98 79.638 266.343 79.638 263.125C79.638 262.142 79.7273 260.355 79.9061 257.763C80.1742 255.171 80.4871 252.132 80.8446 248.646C81.2021 245.16 81.6043 241.361 82.0512 237.25C82.4981 233.049 82.9003 228.893 83.2579 224.781C83.6154 220.67 83.9282 216.692 84.1964 212.849C84.5539 208.916 84.822 205.475 85.0008 202.525Z" fill="#3FBA3B"/>
</svg>
